<?xml version="1.0" standalone="no"?><!-- Generator: Gravit.io --><svg xmlns="http://www.w3.org/2000/svg" xmlns:xlink="http://www.w3.org/1999/xlink" style="isolation:isolate" viewBox="0 0 141.732 141.732" width="141.732" height="141.732"><circle vector-effect="non-scaling-stroke" cx="70.86614173228345" cy="70.86614173228348" r="68.47402472924381" fill="rgb(255,255,255)" stroke-width="6" stroke="rgb(3,34,55)" stroke-linejoin="miter" stroke-linecap="square" stroke-miterlimit="3"/><path d=" M 100.677 132.814 L 106.423 131.206 C 115.819 128.567 122.34 119.785 122.349 109.759 L 122.349 103.07 C 122.355 92.641 115.636 83.475 105.893 80.618 L 105.753 80.59 C 99.376 79.082 93.255 76.594 87.597 73.211 L 87.011 72.867 L 86.09 72.867 L 86.258 78.379 L 86.258 78.523 C 86.237 81.037 85.655 83.512 84.556 85.758 L 84.556 130.775 C 83.831 130.862 83.106 130.948 82.409 131.005 L 82.409 89.088 C 81.767 89.863 81.07 90.581 80.289 91.213 L 74.655 95.921 L 74.097 96.38 L 74.097 131.436 L 71.922 131.436 L 71.922 96.84 L 70.834 96.007 L 65.479 91.816 C 64.81 91.27 64.168 90.696 63.61 90.064 L 63.61 131.034 C 62.885 130.976 62.16 130.89 61.463 130.804 L 61.463 86.992 C 60.096 84.408 59.427 81.451 59.678 78.408 L 59.678 72.895 L 58.953 72.895 L 58.367 73.24 C 52.718 76.644 46.594 79.133 40.21 80.618 L 40.07 80.647 C 35.321 82.019 31.145 84.966 28.189 89.031 C 25.208 93.078 23.601 98.02 23.615 103.099 L 23.615 109.874 C 23.615 119.837 30.113 128.622 39.429 131.292 L 44.366 132.699 C 53.653 135.34 63.22 136.661 72.786 136.661 C 82.186 136.632 91.557 135.34 100.677 132.814 Z  M 115.822 116.822 C 115.292 118.028 114.623 119.148 113.842 120.181 L 113.842 92.246 C 114.623 93.337 115.292 94.486 115.822 95.72 L 115.822 116.822 L 115.822 116.822 Z  M 105.558 126.067 C 105.419 126.124 105.279 126.153 105.112 126.21 L 103.383 126.699 L 103.383 85.327 C 103.773 85.442 104.192 85.528 104.582 85.614 C 104.917 85.7 105.224 85.815 105.558 85.93 L 105.558 126.067 Z  M 92.924 81.738 C 93.649 82.054 94.346 82.341 95.071 82.628 L 95.071 128.909 C 94.346 129.081 93.621 129.225 92.924 129.397 L 92.924 81.738 Z  M 53.179 129.483 C 52.454 129.34 51.729 129.196 51.032 129.024 L 51.032 82.6 C 51.757 82.312 52.482 81.997 53.179 81.681 L 53.179 129.483 Z  M 30.42 95.117 C 30.922 94.055 31.508 93.05 32.205 92.103 L 32.54 91.672 L 32.54 120.755 C 31.703 119.751 31.006 118.631 30.42 117.454 L 30.42 95.117 Z  M 40.851 85.786 L 41.409 85.614 C 41.855 85.499 42.274 85.413 42.72 85.298 L 42.72 126.813 L 40.879 126.297 L 40.851 85.786 Z  M 72.786 10.967 C 86.09 10.967 96.884 22.107 96.884 35.773 L 96.884 37.697 C 97.83 37.803 98.743 38.116 99.562 38.615 L 99.562 23.571 C 99.562 20.356 98.948 17.197 97.721 14.24 C 94.179 5.599 86.09 0 77.165 0 L 59.643 1.624 C 54.344 1.624 51.394 3.933 50.39 9.417 L 47.936 13.178 C 46.653 15.13 45.983 17.427 45.983 19.81 L 45.983 37.41 L 48.717 37.496 L 48.717 35.802 C 48.689 22.107 59.482 10.967 72.786 10.967 Z  M 48.577 40.596 C 48.549 40.596 48.521 40.596 48.493 40.625 C 48.438 40.625 48.354 40.654 48.298 40.682 C 48.27 40.682 48.242 40.682 48.215 40.711 L 47.936 40.797 C 46.956 41.168 46.149 41.907 45.676 42.864 C 45.509 43.18 45.37 43.554 45.258 43.927 C 44.812 45.42 44.84 47.257 45.453 49.066 C 45.509 49.238 45.565 49.41 45.649 49.583 C 45.649 49.611 45.676 49.64 45.676 49.669 C 45.732 49.812 45.816 49.985 45.872 50.128 C 45.9 50.157 45.9 50.186 45.928 50.214 C 46.011 50.358 46.095 50.53 46.151 50.674 L 46.151 50.702 C 46.234 50.846 46.318 50.989 46.402 51.104 C 46.43 51.133 46.43 51.162 46.457 51.162 C 46.541 51.305 46.625 51.42 46.736 51.564 C 46.764 51.592 46.764 51.621 46.792 51.65 C 46.876 51.765 46.987 51.908 47.099 52.023 L 47.127 52.052 C 47.21 52.167 47.322 52.281 47.434 52.368 L 47.489 52.425 C 47.601 52.54 47.713 52.626 47.824 52.741 C 47.852 52.77 47.88 52.77 47.88 52.798 C 47.991 52.884 48.103 52.999 48.215 53.085 C 48.242 53.085 48.242 53.114 48.27 53.114 C 48.382 53.2 48.493 53.286 48.605 53.344 C 48.633 53.344 48.633 53.372 48.661 53.372 C 48.689 53.401 48.744 53.43 48.772 53.43 L 48.772 40.568 C 48.633 40.568 48.605 40.568 48.577 40.596 L 48.577 40.596 Z  M 97.163 53.028 C 97.191 53.028 97.191 52.999 97.219 52.999 C 97.33 52.913 97.442 52.827 97.554 52.712 C 97.581 52.683 97.609 52.683 97.609 52.655 C 97.721 52.569 97.832 52.454 97.916 52.339 L 97.972 52.281 L 98.279 51.966 L 98.307 51.937 C 98.418 51.822 98.502 51.707 98.613 51.564 C 98.641 51.535 98.641 51.506 98.669 51.478 L 98.948 51.104 C 98.976 51.076 98.976 51.047 99.004 51.047 C 99.088 50.903 99.171 50.789 99.255 50.645 C 99.255 50.645 99.255 50.616 99.283 50.616 C 99.366 50.473 99.45 50.329 99.506 50.157 C 99.534 50.128 99.534 50.099 99.562 50.071 C 99.645 49.927 99.701 49.755 99.757 49.611 C 99.757 49.583 99.785 49.554 99.785 49.525 C 99.841 49.353 99.924 49.181 99.98 49.008 C 100.064 48.779 100.12 48.549 100.175 48.319 C 100.231 48.09 100.287 47.86 100.315 47.63 C 100.398 47.171 100.454 46.74 100.454 46.31 C 100.51 44.357 99.896 42.606 98.753 41.544 C 98.362 41.199 97.944 40.912 97.442 40.74 L 97.163 40.654 C 97.135 40.654 97.107 40.654 97.079 40.625 C 97.024 40.596 96.968 40.596 96.912 40.596 L 96.912 53.2 C 96.968 53.143 97.079 53.085 97.163 53.028 L 97.163 53.028 Z  M 83.05 72.953 L 78.197 74.876 C 76.468 75.565 74.655 75.91 72.786 75.91 C 70.918 75.91 69.105 75.565 67.376 74.876 L 62.774 73.068 L 62.774 78.609 C 62.43 82.752 64.178 86.786 67.403 89.289 L 72.759 93.481 L 78.393 88.772 C 81.425 86.258 83.197 82.473 83.218 78.465 L 83.05 72.953 L 83.05 72.953 Z  M 68.463 71.919 C 69.858 72.465 71.308 72.752 72.786 72.752 C 74.237 72.752 75.715 72.465 77.11 71.919 L 86.063 68.388 C 86.286 68.302 86.481 68.216 86.704 68.101 C 86.927 67.986 87.122 67.9 87.318 67.785 C 87.597 67.641 87.848 67.469 88.099 67.326 C 88.35 67.182 88.601 66.981 88.852 66.809 L 89.214 66.522 C 89.577 66.235 89.911 65.919 90.218 65.603 C 90.525 65.287 90.832 64.943 91.111 64.569 C 92.812 62.387 93.788 59.66 93.788 56.789 L 93.788 35.773 C 93.788 23.83 84.361 14.125 72.759 14.125 C 61.156 14.125 51.729 23.83 51.729 35.773 L 51.729 56.789 C 51.729 61.899 54.853 66.579 59.482 68.388 L 68.463 71.919 L 68.463 71.919 Z " fill="rgb(3,34,55)"/></svg>