<?xml version="1.0" standalone="no"?><!-- Generator: Gravit.io --><svg xmlns="http://www.w3.org/2000/svg" xmlns:xlink="http://www.w3.org/1999/xlink" style="isolation:isolate" viewBox="0 0 960 1080" width="960" height="1080"><defs><clipPath id="_clipPath_gEFQvp97cLvKys57ppomy4YVPH7oFUE0"><rect width="960" height="1080"/></clipPath></defs><g clip-path="url(#_clipPath_gEFQvp97cLvKys57ppomy4YVPH7oFUE0)"><rect x="0" y="0" width="960" height="1080" transform="matrix(1,0,0,1,0,0)" fill="rgb(3,34,55)"/><path d=" M 604.704 0 C 608.467 11.66 613.73 30.624 601.941 40.113 L 601.941 40.113 L 604.788 45.576 L 602.126 51.131 L 602.218 56.64 L 605.064 62.103 L 602.494 73.168 L 602.586 78.677 L 603.829 153.05 C 606.304 161.069 609.924 174.624 601.535 180.642 L 601.535 180.642 L 604.382 186.105 L 601.719 191.66 L 601.812 197.169 L 604.704 205.387 C 594.272 213.487 599.311 231.072 602.548 241.242 L 602.548 241.242 L 603.653 307.352 C 605.863 314.622 609.021 326.862 601.313 332.189 L 601.313 332.189 L 604.16 337.652 L 604.252 343.161 C 596.259 356.017 599.007 373.427 602.234 387.28 L 602.234 387.28 L 603.478 461.653 C 605.565 471.253 607.188 483.355 601.229 492 L 601.229 492 L 601.322 497.509 L 602.979 596.673 C 605.75 608.823 608.05 624.111 600.869 635.283 L 600.869 635.283 L 600.962 640.792 L 603.808 646.255 C 595.419 652.273 599.04 665.828 601.514 673.847 L 601.514 673.847 L 602.297 720.675 Q 606.682 735.756 599.865 740.003 Q 608.22 745.374 603.034 764.748 L 603.126 770.257 L 600.601 784.076 L 603.448 789.539 L 600.786 795.094 L 600.878 800.603 L 601.891 861.204 Q 606.999 878.339 599.505 883.286 Q 603.439 961.882 649.62 996.795 Q 686.901 1022.697 743.828 1028.284 L 749.337 1028.192 Q 867.222 1033.798 920.692 977.109 Q 956.254 936.975 951.767 858.11 L 948.782 844.383 L 951.398 836.074 L 948.506 827.856 L 951.168 822.301 L 951.076 816.792 L 948.229 811.328 C 958.661 803.229 953.623 785.644 950.385 775.473 L 950.385 775.473 L 949.28 709.364 C 947.071 702.093 943.913 689.853 951.62 684.526 L 951.62 684.526 L 948.727 676.309 L 948.635 670.8 L 951.252 662.49 L 951.16 656.981 L 948.313 651.518 C 958.051 644.123 953.528 627.964 950.515 618.417 L 950.515 618.417 L 949.502 557.816 C 947.293 550.546 944.135 538.306 951.842 532.979 L 951.842 532.979 L 948.995 527.516 L 951.658 521.961 L 948.811 516.498 L 948.719 510.989 L 951.382 505.434 L 948.489 497.216 L 951.105 488.906 L 951.013 483.397 L 948.121 475.179 C 956.51 469.162 952.889 455.607 950.415 447.588 L 950.415 447.588 L 949.632 400.76 Q 945.247 385.679 952.064 381.432 Q 945.809 378.092 949.033 364.951 L 948.941 359.442 L 951.512 348.377 L 948.665 342.914 L 948.573 337.405 L 951.189 329.095 L 951.097 323.586 L 949.485 227.176 C 945.48 207.551 943.902 178.845 966.006 168.966 C 974.077 165.359 982.644 165.72 991.191 167.239 L 991.191 167.239 L 1012.104 182.044 C 1022.687 198.766 1019.567 221.683 1015.825 239.844 L 1015.825 239.844 L 1015.917 245.353 L 1013.301 253.663 L 1013.393 259.172 L 1016.332 270.144 L 1013.669 275.699 L 1013.761 281.209 L 1016.654 289.426 C 1008.265 295.444 1011.886 308.998 1014.36 317.018 L 1014.36 317.018 L 1015.143 363.846 C 1016.825 369.631 1019.045 379.227 1012.711 383.174 L 1012.711 383.174 L 1015.557 388.637 L 1012.895 394.192 L 1015.741 399.655 L 1013.079 405.21 L 1013.171 410.719 L 1016.11 421.691 L 1013.447 427.247 L 1013.539 432.756 L 1016.432 440.973 C 1007.375 447.675 1011.438 462.528 1014.184 471.32 L 1014.184 471.32 L 1015.013 520.902 Q 1020.121 538.037 1012.627 542.984 Q 1020.282 547.678 1015.75 564.975 L 1015.842 570.484 L 1013.225 578.794 L 1013.317 584.303 L 1016.164 589.766 C 1005.732 597.866 1010.771 615.451 1014.008 625.621 L 1014.008 625.621 L 1015.113 691.731 C 1017.588 699.75 1021.209 713.305 1012.819 719.323 L 1012.819 719.323 L 1015.666 724.786 L 1015.758 730.295 L 1013.142 738.605 L 1013.234 744.114 L 1014.891 843.278 C 1018.129 853.449 1023.168 871.034 1012.735 879.134 L 1012.735 879.134 L 1015.582 884.597 L 1015.674 890.106 Q 1011.031 983.176 953.175 1024.784 Q 902.77 1065.468 821.785 1076.577 L 816.276 1076.669 L 755.721 1080.436 Q 641.06 1074.3 582.341 1010.318 Q 540.812 970.595 536.288 892.609 L 536.196 887.1 L 538.858 881.545 L 536.011 876.082 L 538.674 870.526 L 535.827 865.063 L 538.49 859.508 L 538.398 853.999 L 536.878 763.098 C 533.865 753.551 529.342 737.392 539.08 729.997 L 539.08 729.997 L 536.233 724.534 L 538.896 718.979 L 538.804 713.47 L 535.957 708.007 C 546.389 699.907 541.35 682.322 538.113 672.152 L 538.113 672.152 L 537.008 606.042 C 535.148 597.291 533.752 586.252 539.302 578.45 L 539.302 578.45 L 539.21 572.941 L 537.552 473.777 C 534.315 463.606 529.276 446.021 539.708 437.921 L 539.708 437.921 L 536.861 432.458 L 539.524 426.903 L 539.432 421.394 L 537.912 330.493 C 534.899 320.946 530.376 304.787 540.114 297.393 L 540.114 297.393 L 537.268 291.929 L 539.93 286.374 L 537.083 280.911 L 539.746 275.356 L 539.654 269.847 L 538.134 178.946 C 535.121 169.399 530.598 153.24 540.336 145.845 L 540.336 145.845 L 537.49 140.382 L 540.152 134.827 L 540.06 129.318 L 537.213 123.855 C 546.951 116.46 542.428 100.301 539.415 90.754 L 539.415 90.754 L 538.448 32.908 C 536.239 25.638 533.081 13.397 540.788 8.071 L 540.788 8.071 L 538.674 0 L 604.704 0 Z  M 910.515 1.559 L 910.038 10.164 L 912.885 15.627 L 910.222 21.183 L 913.069 26.646 L 913.161 32.155 C 905.574 44.169 908.099 60.518 911.097 73.519 L 911.097 73.519 L 912.249 142.383 C 914.336 151.983 915.959 164.085 910.001 172.73 L 910.001 172.73 L 910.093 178.239 L 911.75 277.403 C 914.988 287.574 920.026 305.159 909.594 313.259 L 909.594 313.259 L 909.686 318.768 Q 906.462 331.91 912.717 335.249 Q 902.514 342.997 910.515 368.35 L 911.528 428.95 C 913.738 436.221 916.896 448.461 909.188 453.788 L 909.188 453.788 L 912.035 459.251 L 909.372 464.806 L 909.465 470.315 L 912.311 475.778 C 901.879 483.878 906.918 501.463 910.155 511.633 L 910.155 511.633 L 911.26 577.743 C 913.47 585.014 916.628 597.254 908.92 602.58 L 908.92 602.58 L 911.767 608.043 L 909.104 613.598 L 911.951 619.061 C 915.927 660.597 912.39 704.291 884.444 737.276 C 852.022 775.546 799.282 784.185 751.681 777.776 C 720.672 773.602 688.684 761.299 668.683 736.097 C 641.409 701.732 642.327 650.785 647.283 609.709 L 647.283 609.709 L 647.191 604.2 L 649.853 598.645 L 647.006 593.182 L 649.669 587.627 L 649.577 582.118 L 648.61 524.272 C 646.4 517.001 643.242 504.761 650.95 499.435 L 650.95 499.435 L 647.965 485.708 L 647.873 480.199 L 650.351 463.625 L 647.458 455.408 L 650.075 447.098 L 649.983 441.589 L 649.016 383.743 Q 643.184 364.553 651.356 358.906 Q 645.101 355.566 648.325 342.424 L 648.233 336.915 Q 663.389 309.568 649.606 254.232 Q 642.752 215.083 661.104 200.311 L 674.784 194.572 L 680.294 194.479 C 707.905 194.167 718.212 214.123 715.485 239.354 L 715.485 239.354 L 715.578 244.863 L 712.961 253.173 L 713.053 258.682 L 714.389 338.565 C 717.135 347.357 721.198 362.21 712.141 368.911 L 712.141 368.911 L 715.079 379.883 L 712.417 385.438 L 715.264 390.901 L 715.356 396.41 L 712.739 404.72 L 712.831 410.229 L 713.844 470.83 C 715.79 477.355 718.481 488.277 711.458 492.912 L 711.458 492.912 L 714.443 506.639 L 711.781 512.194 L 711.873 517.703 L 713.392 608.604 C 716.405 618.151 720.928 634.31 711.19 641.705 L 711.19 641.705 L 714.037 647.168 L 711.374 652.723 L 711.466 658.232 L 714.359 666.45 L 711.697 672.005 L 714.589 680.223 C 714.978 702.376 724.889 716.835 745.598 723.819 C 771.478 732.546 821.532 734.565 836.251 705.742 L 836.251 705.742 L 846.624 666.994 L 846.532 661.485 L 845.289 587.112 C 842.815 579.092 839.194 565.538 847.583 559.52 L 847.583 559.52 L 844.736 554.057 L 847.399 548.502 L 847.307 542.993 L 844.46 537.53 C 854.892 529.43 849.853 511.845 846.616 501.674 L 846.616 501.674 L 845.511 435.565 C 843.651 426.813 842.255 415.774 847.805 407.973 L 847.805 407.973 L 847.713 402.464 L 844.82 394.246 C 855.252 386.146 850.214 368.561 846.976 358.391 L 846.976 358.391 L 845.871 292.281 C 843.662 285.011 840.504 272.771 848.211 267.444 L 848.211 267.444 L 845.364 261.981 L 848.027 256.426 L 847.935 250.917 L 845.088 245.454 C 854.826 238.059 850.303 221.9 847.29 212.353 L 847.29 212.353 L 846.277 151.752 C 844.068 144.482 840.91 132.242 848.617 126.915 L 848.617 126.915 L 845.771 121.452 L 845.679 115.943 L 848.249 104.879 L 848.157 99.37 L 848.617 0 C 848.667 0.333 909.333 1 910.515 1.559 Z " fill-rule="evenodd" fill="rgb(4,44,68)"/></g></svg>