<?xml version="1.0" standalone="no"?><!-- Generator: Gravit.io --><svg xmlns="http://www.w3.org/2000/svg" xmlns:xlink="http://www.w3.org/1999/xlink" style="isolation:isolate" viewBox="0 0 59 59" width="59" height="59"><defs><clipPath id="_clipPath_30MIF71ZYx0xhrtgr5UTmbVWj82kprjl"><rect width="59" height="59"/></clipPath></defs><g clip-path="url(#_clipPath_30MIF71ZYx0xhrtgr5UTmbVWj82kprjl)"><g><path d=" M 0 29.5 C 0 21.679 3.11 14.169 8.644 8.644 C 14.169 3.11 21.679 0 29.5 0 C 37.321 0 44.831 3.11 50.356 8.644 C 55.89 14.169 59 21.679 59 29.5 L 59 29.5 C 59 37.321 55.89 44.831 50.356 50.356 C 44.831 55.89 37.321 59 29.5 59 L 29.5 59 C 21.679 59 14.169 55.89 8.644 50.356 C 3.11 44.831 0 37.321 0 29.5 Z  M 5.031 29.5 C 5.031 23.015 7.611 16.785 12.193 12.193 C 16.785 7.611 23.015 5.031 29.5 5.031 C 35.985 5.031 42.215 7.611 46.807 12.193 C 51.389 16.785 53.969 23.015 53.969 29.5 L 53.969 29.5 C 53.969 35.985 51.389 42.215 46.807 46.807 C 42.215 51.389 35.985 53.969 29.5 53.969 L 29.5 53.969 C 23.015 53.969 16.785 51.389 12.193 46.807 C 7.611 42.215 5.031 35.985 5.031 29.5 Z " fill-rule="evenodd" fill="rgb(3,34,55)"/><path d=" M 30.077 8.512 C 26.763 8.512 23.899 9.888 22.112 12.119 C 20.329 14.351 19.583 17.243 19.583 20.364 L 19.583 22.004 L 24.08 22.004 L 24.08 20.364 C 24.08 17.999 24.665 16.137 25.626 14.93 C 26.585 13.725 27.892 13.009 30.077 13.009 C 32.265 13.009 33.567 13.684 34.528 14.883 C 35.487 16.083 36.073 17.97 36.073 20.364 L 36.073 22.004 L 40.571 22.004 L 40.571 20.364 C 40.571 17.227 39.781 14.303 37.994 12.073 C 36.208 9.842 33.385 8.512 30.077 8.512 Z  M 19.583 23.503 C 17.099 23.503 15.085 25.517 15.085 28.001 L 15.085 42.992 C 15.085 45.476 17.099 47.49 19.583 47.49 L 40.571 47.49 C 43.054 47.49 45.068 45.476 45.068 42.992 L 45.068 28.001 C 45.068 25.517 43.054 23.503 40.571 23.503 L 19.583 23.503 Z  M 30.077 30.999 C 31.732 30.999 33.075 32.342 33.075 33.997 C 33.075 35.104 32.472 36.053 31.576 36.574 L 31.576 39.994 C 31.576 40.818 30.901 41.493 30.077 41.493 C 29.252 41.493 28.577 40.818 28.577 39.994 L 28.577 36.574 C 27.681 36.053 27.078 35.105 27.078 33.997 C 27.078 32.342 28.421 30.999 30.077 30.999 Z " fill="rgb(3,34,55)"/></g></g></svg>