<?xml version="1.0" standalone="no"?><!-- Generator: Gravit.io --><svg xmlns="http://www.w3.org/2000/svg" xmlns:xlink="http://www.w3.org/1999/xlink" style="isolation:isolate" viewBox="0 0 141.732 141.732" width="141.732" height="141.732"><circle vector-effect="non-scaling-stroke" cx="70.86614173228347" cy="70.86614173228347" r="70.86614173228347" fill="rgb(255,255,255)"/><path d=" M 99.59 137.742 L 105.548 136.075 C 115.293 133.338 122.056 124.23 122.065 113.832 L 122.065 106.895 C 122.071 96.079 115.104 86.573 104.999 83.61 L 104.854 83.58 C 98.24 82.016 91.892 79.437 86.023 75.928 L 85.416 75.571 L 84.461 75.571 L 84.635 81.288 L 84.635 81.437 C 84.613 84.044 84.01 86.611 82.87 88.94 L 82.87 135.628 C 82.118 135.718 81.366 135.807 80.643 135.866 L 80.643 92.394 C 79.978 93.198 79.255 93.942 78.445 94.597 L 72.602 99.481 L 72.023 99.957 L 72.023 136.313 L 69.767 136.313 L 69.767 100.433 L 68.639 99.57 L 63.085 95.223 C 62.391 94.657 61.726 94.061 61.147 93.406 L 61.147 135.896 C 60.395 135.837 59.643 135.747 58.92 135.658 L 58.92 90.22 C 57.502 87.541 56.808 84.474 57.069 81.317 L 57.069 75.6 L 56.316 75.6 L 55.709 75.958 C 49.851 79.489 43.5 82.07 36.878 83.61 L 36.734 83.64 C 31.808 85.063 27.477 88.119 24.411 92.334 C 21.32 96.532 19.653 101.658 19.667 106.925 L 19.667 113.952 C 19.667 124.284 26.407 133.395 36.068 136.164 L 41.188 137.623 C 50.821 140.363 60.742 141.732 70.664 141.732 C 80.412 141.703 90.131 140.363 99.59 137.742 Z  M 115.296 121.157 C 114.747 122.408 114.053 123.569 113.243 124.641 L 113.243 95.669 C 114.053 96.801 114.747 97.992 115.296 99.272 L 115.296 121.157 L 115.296 121.157 Z  M 104.652 130.745 C 104.507 130.805 104.362 130.834 104.189 130.894 L 102.395 131.4 L 102.395 88.493 C 102.8 88.612 103.234 88.702 103.639 88.791 C 103.986 88.88 104.305 89 104.652 89.119 L 104.652 130.745 Z  M 91.548 84.771 C 92.3 85.099 93.023 85.397 93.775 85.694 L 93.775 133.693 C 93.023 133.872 92.271 134.02 91.548 134.199 L 91.548 84.771 Z  M 50.329 134.288 C 49.577 134.139 48.825 133.991 48.102 133.812 L 48.102 85.665 C 48.854 85.367 49.606 85.039 50.329 84.712 L 50.329 134.288 Z  M 26.725 98.647 C 27.246 97.545 27.853 96.503 28.577 95.52 L 28.924 95.074 L 28.924 125.237 C 28.056 124.194 27.333 123.033 26.725 121.812 L 26.725 98.647 Z  M 37.544 88.97 L 38.122 88.791 C 38.585 88.672 39.019 88.583 39.482 88.464 L 39.482 131.519 L 37.572 130.983 L 37.544 88.97 Z  M 70.664 11.374 C 84.461 11.374 95.656 22.927 95.656 37.101 L 95.656 39.095 C 96.637 39.206 97.583 39.531 98.433 40.048 L 98.433 24.446 C 98.433 21.111 97.796 17.836 96.523 14.769 C 92.85 5.806 84.461 0 75.205 0 L 58.717 0 C 53.221 0 48.478 4.079 47.436 9.766 L 44.891 13.667 C 43.56 15.692 42.866 18.074 42.866 20.545 L 42.866 38.798 L 45.701 38.887 L 45.701 37.13 C 45.672 22.927 56.866 11.374 70.664 11.374 Z  M 45.556 42.103 C 45.527 42.103 45.498 42.103 45.469 42.133 C 45.411 42.133 45.325 42.162 45.267 42.192 C 45.238 42.192 45.209 42.192 45.18 42.222 L 44.891 42.311 C 43.875 42.696 43.038 43.462 42.548 44.455 C 42.374 44.783 42.23 45.17 42.114 45.557 C 41.651 47.105 41.68 49.011 42.316 50.887 C 42.374 51.065 42.432 51.244 42.519 51.423 C 42.519 51.452 42.548 51.482 42.548 51.512 C 42.606 51.661 42.692 51.839 42.75 51.988 C 42.779 52.018 42.779 52.048 42.808 52.078 C 42.895 52.227 42.982 52.405 43.039 52.554 L 43.039 52.584 C 43.126 52.733 43.213 52.882 43.3 53.001 C 43.329 53.031 43.329 53.06 43.358 53.06 C 43.444 53.209 43.531 53.328 43.647 53.477 C 43.676 53.507 43.676 53.537 43.705 53.566 C 43.792 53.686 43.907 53.834 44.023 53.954 L 44.052 53.983 C 44.139 54.102 44.254 54.222 44.37 54.311 L 44.428 54.37 C 44.544 54.49 44.659 54.579 44.775 54.698 C 44.804 54.728 44.833 54.728 44.833 54.757 C 44.949 54.847 45.064 54.966 45.18 55.055 C 45.209 55.055 45.209 55.085 45.238 55.085 C 45.354 55.174 45.469 55.264 45.585 55.323 C 45.614 55.323 45.614 55.353 45.643 55.353 C 45.672 55.383 45.73 55.413 45.759 55.413 L 45.759 42.073 C 45.614 42.073 45.585 42.073 45.556 42.103 L 45.556 42.103 Z  M 95.945 54.996 C 95.974 54.996 95.974 54.966 96.003 54.966 C 96.118 54.877 96.234 54.787 96.35 54.668 C 96.379 54.638 96.408 54.638 96.408 54.609 C 96.523 54.519 96.639 54.4 96.726 54.281 L 96.784 54.222 L 97.102 53.894 L 97.131 53.864 C 97.247 53.745 97.333 53.626 97.449 53.477 C 97.478 53.447 97.478 53.418 97.507 53.388 L 97.796 53.001 C 97.825 52.971 97.825 52.941 97.854 52.941 C 97.941 52.792 98.028 52.673 98.114 52.524 C 98.114 52.524 98.114 52.495 98.143 52.495 C 98.23 52.346 98.317 52.197 98.375 52.018 C 98.404 51.988 98.404 51.959 98.433 51.929 C 98.519 51.78 98.577 51.601 98.635 51.452 C 98.635 51.423 98.664 51.393 98.664 51.363 C 98.722 51.184 98.809 51.006 98.866 50.827 C 98.953 50.589 99.011 50.351 99.069 50.112 C 99.127 49.874 99.185 49.636 99.214 49.398 C 99.3 48.921 99.358 48.475 99.358 48.028 C 99.416 46.003 98.78 44.187 97.594 43.085 C 97.189 42.728 96.755 42.43 96.234 42.252 L 95.945 42.162 C 95.916 42.162 95.887 42.162 95.858 42.133 C 95.8 42.103 95.742 42.103 95.685 42.103 L 95.685 55.174 C 95.742 55.115 95.858 55.055 95.945 54.996 L 95.945 54.996 Z  M 81.308 75.66 L 76.275 77.655 C 74.482 78.37 72.602 78.727 70.664 78.727 C 68.726 78.727 66.845 78.37 65.052 77.655 L 60.279 75.779 L 60.279 81.526 C 59.923 85.822 61.736 90.006 65.081 92.602 L 70.635 96.95 L 76.478 92.066 C 79.623 89.459 81.461 85.533 81.482 81.377 L 81.308 75.66 L 81.308 75.66 Z  M 66.18 74.588 C 67.626 75.154 69.131 75.452 70.664 75.452 C 72.168 75.452 73.701 75.154 75.147 74.588 L 84.432 70.926 C 84.664 70.836 84.866 70.747 85.098 70.628 C 85.329 70.509 85.532 70.42 85.734 70.3 C 86.023 70.152 86.284 69.973 86.544 69.824 C 86.804 69.675 87.065 69.467 87.325 69.288 L 87.701 68.99 C 88.077 68.693 88.424 68.365 88.742 68.037 C 89.061 67.71 89.379 67.353 89.668 66.966 C 91.432 64.703 92.445 61.874 92.445 58.896 L 92.445 37.101 C 92.445 24.714 82.668 14.65 70.635 14.65 C 58.602 14.65 48.825 24.714 48.825 37.101 L 48.825 58.896 C 48.825 64.196 52.064 69.05 56.866 70.926 L 66.18 74.588 L 66.18 74.588 Z " fill="rgb(3,34,55)"/></svg>