<?xml version="1.0" standalone="no"?><!-- Generator: Gravit.io --><svg xmlns="http://www.w3.org/2000/svg" xmlns:xlink="http://www.w3.org/1999/xlink" style="isolation:isolate" viewBox="0 0 100 100" width="100" height="100"><defs><clipPath id="_clipPath_o1gpCjMgE5A9suiLJhKQl6SALWwJ1PQK"><rect width="100" height="100"/></clipPath></defs><g clip-path="url(#_clipPath_o1gpCjMgE5A9suiLJhKQl6SALWwJ1PQK)"><g><defs><filter id="kKROwT4JTnTq2UCQcHzc2TQxeNmW0cgt" x="-200%" y="-200%" width="400%" height="400%" filterUnits="objectBoundingBox" color-interpolation-filters="sRGB"><feGaussianBlur xmlns="http://www.w3.org/2000/svg" in="SourceGraphic" stdDeviation="8.587218125678056"/><feOffset xmlns="http://www.w3.org/2000/svg" dx="0" dy="0" result="pf_100_offsetBlur"/><feFlood xmlns="http://www.w3.org/2000/svg" flood-color="#000000" flood-opacity="0.4"/><feComposite xmlns="http://www.w3.org/2000/svg" in2="pf_100_offsetBlur" operator="in" result="pf_100_dropShadow"/><feBlend xmlns="http://www.w3.org/2000/svg" in="SourceGraphic" in2="pf_100_dropShadow" mode="normal"/></filter></defs><g filter="url(#kKROwT4JTnTq2UCQcHzc2TQxeNmW0cgt)"><path d=" M 82 50 C 82 67.815 67.486 82 50 82 C 32.516 82 18 67.815 18 50 C 18 32.185 32.185 18 50 18 C 67.815 18 82 32.185 82 50 Z " fill="rgb(54,106,176)"/></g><path d=" M 49.68 64.72 C 49.68 64.08 49.36 63.76 48.72 63.44 C 46.8 62.8 44.88 62.8 43.28 61.198 C 42.96 60.558 42.96 59.918 42.64 59.278 C 42 58.638 40.4 58.318 39.44 57.998 L 33.04 57.998 C 32.08 57.678 31.44 56.398 30.8 55.438 C 30.8 55.118 30.8 54.477 30.16 54.477 C 29.52 54.158 28.88 54.798 28.24 54.477 C 27.92 54.158 27.92 53.837 27.92 53.518 C 27.92 52.557 28.56 51.597 29.2 50.957 C 30.16 50.317 31.12 51.277 32.08 51.277 C 32.4 51.277 32.4 51.277 32.72 51.597 C 33.68 51.917 34 53.197 34 54.158 L 34 54.798 C 34 55.118 34.32 55.118 34.64 55.118 C 34.96 53.518 34.96 51.917 35.28 50.318 C 35.28 48.398 37.2 46.477 38.8 45.838 C 39.44 45.52 39.76 46.16 40.4 45.838 C 42.32 45.198 47.12 43.278 46.16 40.72 C 45.52 38.478 43.6 36.242 41.04 36.56 C 40.4 36.882 40.08 37.2 39.44 37.522 C 38.48 38.162 36.56 40.082 35.6 40.082 C 34 39.762 34 37.522 34.32 36.56 C 34.64 35.28 37.52 31.122 39.44 31.762 L 40.72 33.042 C 41.36 33.362 42.32 33.362 43.28 33.362 C 43.6 33.362 43.92 33.362 44.24 33.042 C 44.56 32.722 44.56 32.722 44.56 32.402 C 44.56 31.442 43.6 30.48 42.96 29.84 C 42.32 29.2 41.36 28.56 40.4 28.242 C 37.2 27.28 32.08 28.56 29.52 30.802 C 26.96 33.042 25.04 36.882 23.76 40.082 C 23.12 42.002 22.48 44.56 22.16 46.802 C 21.84 48.402 21.52 49.682 22.48 51.28 C 23.44 53.2 25.36 55.122 27.28 56.4 C 28.56 57.36 31.12 57.36 32.4 58.96 C 33.36 60.242 33.04 61.84 33.04 63.44 C 33.04 65.36 34.32 66.96 34.96 68.558 C 35.28 69.52 35.6 70.8 35.92 71.76 C 35.92 72.08 36.24 74 36.24 74.32 C 38.16 75.28 39.76 76.242 42 76.882 C 42.32 76.882 43.6 74.96 43.6 74.64 C 44.56 73.68 45.2 72.4 46.16 71.76 C 46.8 71.44 47.44 71.12 48.08 70.478 C 48.72 69.838 49.04 68.558 49.36 67.598 C 49.68 66.96 50 65.68 49.68 64.72 M 50.32 35.28 C 50.64 35.28 50.96 34.96 51.6 34.64 C 52.56 34 53.522 33.04 54.48 32.4 C 55.442 31.76 56.402 30.8 57.042 30.16 C 58.002 29.52 58.642 28.24 58.962 27.278 C 59.282 26.638 60.243 25.358 59.922 24.398 C 59.602 23.758 58.002 23.438 57.362 23.118 C 54.8 22.478 52.56 22.16 50 22.16 C 49.04 22.16 47.76 22.478 47.44 23.44 C 47.12 25.04 48.4 24.72 49.68 25.04 C 49.68 25.04 50 27.6 50 27.92 C 50.32 29.522 49.36 30.48 49.36 32.08 C 49.36 33.04 49.36 34.64 50 35.28 L 50.32 35.28 L 50.32 35.28 Z  M 77.2 57.68 C 77.522 57.04 77.522 56.08 77.84 55.44 C 78.162 53.838 78.162 52.24 78.162 50.64 C 78.162 47.44 77.84 44.242 76.882 41.36 C 76.242 40.4 75.92 39.44 75.6 38.478 C 74.96 36.88 74 35.278 72.72 34 C 71.44 32.4 69.838 27.92 66.96 29.2 C 66 29.522 65.36 30.802 64.72 31.442 L 62.8 34.322 C 62.478 34.642 62.16 35.282 62.478 35.602 C 62.478 35.922 62.8 35.922 63.118 35.922 C 63.758 36.243 64.08 36.243 64.72 36.562 C 65.04 36.562 65.36 36.883 65.04 37.202 C 65.04 37.202 65.04 37.523 64.72 37.523 C 63.118 39.123 61.52 40.403 59.92 42.002 C 59.6 42.322 59.28 42.962 59.28 43.282 C 59.28 43.602 59.6 43.602 59.6 43.922 C 59.6 44.243 59.28 44.243 58.96 44.562 C 58.32 44.883 57.68 45.202 57.36 45.523 C 57.04 46.163 57.36 47.123 57.04 47.763 C 56.72 49.363 55.758 50.643 55.118 52.243 C 54.478 53.202 54.16 54.163 53.52 55.123 C 53.52 56.403 53.198 57.363 53.838 58.323 C 55.44 60.563 58.318 59.283 60.558 60.245 C 61.198 60.563 61.838 60.563 62.16 61.203 C 63.118 62.165 63.118 63.765 63.44 64.725 C 63.758 66.005 64.08 67.285 64.72 68.565 C 65.04 70.166 65.68 71.766 66 73.045 C 68.882 70.805 71.44 68.246 73.36 65.045 C 75.28 62.8 76.242 60.242 77.2 57.68" fill="rgb(142,184,59)"/></g></g></svg>