<?xml version="1.0" standalone="no"?><!-- Generator: Gravit.io --><svg xmlns="http://www.w3.org/2000/svg" xmlns:xlink="http://www.w3.org/1999/xlink" style="isolation:isolate" viewBox="0 0 63 63" width="63" height="63"><defs><clipPath id="_clipPath_rgoXIvBK3iKSNZ2wtoHSl9Ck3n1cLUT6"><rect width="63" height="63"/></clipPath></defs><g clip-path="url(#_clipPath_rgoXIvBK3iKSNZ2wtoHSl9Ck3n1cLUT6)"><path d=" M 31.478 0.955 C 17.29 0.955 5.386 10.702 1.988 23.847 L 7.238 23.847 C 10.483 13.533 20.108 6.042 31.478 6.042 C 45.508 6.042 56.913 17.447 56.913 31.478 C 56.913 45.508 45.508 56.913 31.478 56.913 C 20.111 56.913 10.483 49.422 7.235 39.108 L 1.988 39.108 C 5.386 52.253 17.29 62 31.478 62 C 48.308 62 62 48.308 62 31.478 C 62 14.647 48.308 0.955 31.478 0.955 Z  M 29.809 19.475 L 26.151 23.132 L 31.953 28.934 L 0.955 28.934 L 0.955 34.021 L 31.956 34.021 L 26.151 39.823 L 29.809 43.481 L 39.983 33.306 L 41.728 31.478 L 39.981 29.649 L 29.809 19.475 Z " fill="rgb(3,34,55)" vector-effect="non-scaling-stroke" stroke-width="2" stroke="rgb(3,34,55)" stroke-linejoin="miter" stroke-linecap="butt" stroke-miterlimit="4"/></g></svg>