<?xml version="1.0" standalone="no"?><!-- Generator: Gravit.io --><svg xmlns="http://www.w3.org/2000/svg" xmlns:xlink="http://www.w3.org/1999/xlink" style="isolation:isolate" viewBox="0 0 59 59" width="59" height="59"><defs><clipPath id="_clipPath_3Ufha3yJbkuBaImRMw0yLtuWCK2k9QGu"><rect width="59" height="59"/></clipPath></defs><g clip-path="url(#_clipPath_3Ufha3yJbkuBaImRMw0yLtuWCK2k9QGu)"><path d=" M 29.5 0 C 13.24 0 0 13.24 0 29.5 C 0 45.76 13.24 59 29.5 59 C 45.76 59 59 45.76 59 29.5 C 59 13.24 45.76 0 29.5 0 Z  M 29.5 5.9 C 42.568 5.9 53.1 16.432 53.1 29.5 C 53.1 42.568 42.568 53.1 29.5 53.1 C 16.432 53.1 5.9 42.568 5.9 29.5 C 5.9 16.432 16.432 5.9 29.5 5.9 Z  M 29.5 9.956 C 24.119 9.956 20.65 14.263 20.65 19.544 L 20.65 23.691 L 21.573 24.429 C 22.989 27.379 25.948 29.5 29.5 29.5 C 33.084 29.5 36.138 27.355 37.521 24.337 L 38.35 23.6 L 38.35 19.544 C 38.35 16.039 37.022 12.561 32.633 11.709 L 31.713 9.956 L 29.5 9.956 Z  M 29.314 35.4 C 20.476 35.4 15.567 39.677 13.275 42.592 C 17.217 47.391 23.107 50.166 29.317 50.15 C 35.501 50.163 41.361 47.385 45.265 42.589 C 42.97 39.677 38.155 35.4 29.314 35.4 Z " fill-rule="evenodd" fill="rgb(3,34,55)"/></g></svg>